<svg width="32" height="32" viewBox="0 0 64 64" fill="none" xmlns="http://www.w3.org/2000/svg">
  <rect width="64" height="64" rx="12" fill="#0a1628"/>
  <circle cx="32" cy="24" r="9" fill="#c9a84c"/>
  <line x1="32" y1="12" x2="32" y2="7" stroke="#c9a84c" stroke-width="2" stroke-linecap="round"/>
  <line x1="38.36" y1="17.64" x2="42" y2="14" stroke="#c9a84c" stroke-width="1.2" stroke-linecap="round"/>
  <line x1="41" y1="24" x2="46" y2="24" stroke="#c9a84c" stroke-width="2" stroke-linecap="round"/>
  <line x1="38.36" y1="30.36" x2="42" y2="34" stroke="#c9a84c" stroke-width="1.2" stroke-linecap="round"/>
  <line x1="32" y1="36" x2="32" y2="40" stroke="#c9a84c" stroke-width="2" stroke-linecap="round"/>
  <line x1="25.64" y1="30.36" x2="22" y2="34" stroke="#c9a84c" stroke-width="1.2" stroke-linecap="round"/>
  <line x1="23" y1="24" x2="18" y2="24" stroke="#c9a84c" stroke-width="2" stroke-linecap="round"/>
  <line x1="25.64" y1="17.64" x2="22" y2="14" stroke="#c9a84c" stroke-width="1.2" stroke-linecap="round"/>
  <path d="M10 42 Q21 36 32 42 Q43 48 54 42" stroke="#1b7aad" stroke-width="2" fill="none" opacity="0.8" stroke-linecap="round"/>
  <path d="M12 47 Q23 41 34 47 Q45 53 56 47" stroke="#1b7aad" stroke-width="1.4" fill="none" opacity="0.45" stroke-linecap="round"/>
  <path d="M14 52 Q25 46 36 52 Q47 58 58 52" stroke="#1b7aad" stroke-width="0.8" fill="none" opacity="0.25" stroke-linecap="round"/>
</svg>
